<mxfile host="app.diagrams.net" modified="2024-01-13T06:32:48.691Z" agent="Mozilla/5.0 (Windows NT 10.0; Win64; x64) AppleWebKit/537.36 (KHTML, like Gecko) Chrome/120.0.0.0 Safari/537.36" etag="bmevycCpkmXOh1IXbzUM" version="22.1.18" type="device">
  <diagram name="Page-1" id="p48YaIpHp-uYtmWrKo8o">
    <mxGraphModel dx="1615" dy="803" grid="1" gridSize="10" guides="1" tooltips="1" connect="1" arrows="1" fold="1" page="1" pageScale="1" pageWidth="827" pageHeight="1169" math="0" shadow="0">
      <root>
        <mxCell id="0" />
        <mxCell id="1" parent="0" />
        <mxCell id="GmTHtz7dzIs1dA5yFzp--54" style="edgeStyle=none;shape=connector;rounded=0;orthogonalLoop=1;jettySize=auto;html=1;exitX=0.5;exitY=0.5;exitDx=0;exitDy=0;exitPerimeter=0;entryX=0;entryY=0.5;entryDx=0;entryDy=0;labelBackgroundColor=default;strokeColor=default;align=center;verticalAlign=middle;fontFamily=Helvetica;fontSize=11;fontColor=default;endArrow=none;endFill=0;startArrow=none;startFill=0;" edge="1" parent="1" source="XZLCO3Vo44rSbqRTJxc--2" target="XZLCO3Vo44rSbqRTJxc--7">
          <mxGeometry relative="1" as="geometry" />
        </mxCell>
        <mxCell id="XZLCO3Vo44rSbqRTJxc--2" value="User" style="shape=umlActor;verticalLabelPosition=bottom;verticalAlign=top;html=1;outlineConnect=0;" parent="1" vertex="1">
          <mxGeometry x="60" y="470" width="30" height="60" as="geometry" />
        </mxCell>
        <mxCell id="GmTHtz7dzIs1dA5yFzp--1" value="WestminsterShoppingManager" style="swimlane;" vertex="1" parent="1">
          <mxGeometry x="170" y="20" width="630" height="800" as="geometry" />
        </mxCell>
        <mxCell id="XZLCO3Vo44rSbqRTJxc--3" value="Add Product" style="ellipse;whiteSpace=wrap;html=1;" parent="GmTHtz7dzIs1dA5yFzp--1" vertex="1">
          <mxGeometry x="30" y="80" width="120" height="40" as="geometry" />
        </mxCell>
        <mxCell id="XZLCO3Vo44rSbqRTJxc--4" value="Delete Product" style="ellipse;whiteSpace=wrap;html=1;" parent="GmTHtz7dzIs1dA5yFzp--1" vertex="1">
          <mxGeometry x="30" y="140" width="120" height="40" as="geometry" />
        </mxCell>
        <mxCell id="XZLCO3Vo44rSbqRTJxc--5" value="Print Products" style="ellipse;whiteSpace=wrap;html=1;" parent="GmTHtz7dzIs1dA5yFzp--1" vertex="1">
          <mxGeometry x="30" y="190" width="120" height="40" as="geometry" />
        </mxCell>
        <mxCell id="XZLCO3Vo44rSbqRTJxc--6" value="Save Products" style="ellipse;whiteSpace=wrap;html=1;" parent="GmTHtz7dzIs1dA5yFzp--1" vertex="1">
          <mxGeometry x="30" y="240" width="120" height="40" as="geometry" />
        </mxCell>
        <mxCell id="GmTHtz7dzIs1dA5yFzp--3" value="Load Products" style="ellipse;whiteSpace=wrap;html=1;" vertex="1" parent="GmTHtz7dzIs1dA5yFzp--1">
          <mxGeometry x="30" y="295" width="120" height="40" as="geometry" />
        </mxCell>
        <mxCell id="GmTHtz7dzIs1dA5yFzp--5" value="Access manager Menu&amp;nbsp;" style="ellipse;whiteSpace=wrap;html=1;" vertex="1" parent="GmTHtz7dzIs1dA5yFzp--1">
          <mxGeometry x="30" y="30" width="120" height="40" as="geometry" />
        </mxCell>
        <mxCell id="GmTHtz7dzIs1dA5yFzp--6" value="Authenticate" style="ellipse;whiteSpace=wrap;html=1;" vertex="1" parent="GmTHtz7dzIs1dA5yFzp--1">
          <mxGeometry x="234" y="190" width="120" height="40" as="geometry" />
        </mxCell>
        <mxCell id="GmTHtz7dzIs1dA5yFzp--22" value="" style="edgeStyle=none;shape=connector;rounded=0;orthogonalLoop=1;jettySize=auto;html=1;dashed=1;labelBackgroundColor=default;strokeColor=default;align=center;verticalAlign=middle;fontFamily=Helvetica;fontSize=11;fontColor=default;endArrow=block;endFill=0;entryX=1;entryY=0.5;entryDx=0;entryDy=0;" edge="1" parent="GmTHtz7dzIs1dA5yFzp--1" source="GmTHtz7dzIs1dA5yFzp--7" target="GmTHtz7dzIs1dA5yFzp--5">
          <mxGeometry relative="1" as="geometry" />
        </mxCell>
        <mxCell id="GmTHtz7dzIs1dA5yFzp--30" value="&amp;lt;&amp;lt;extends&amp;gt;&amp;gt;" style="edgeLabel;html=1;align=center;verticalAlign=middle;resizable=0;points=[];fontSize=11;fontFamily=Helvetica;fontColor=default;" vertex="1" connectable="0" parent="GmTHtz7dzIs1dA5yFzp--22">
          <mxGeometry x="-0.0727" y="1" relative="1" as="geometry">
            <mxPoint as="offset" />
          </mxGeometry>
        </mxCell>
        <mxCell id="GmTHtz7dzIs1dA5yFzp--7" value="Invalid manager password" style="ellipse;whiteSpace=wrap;html=1;" vertex="1" parent="GmTHtz7dzIs1dA5yFzp--1">
          <mxGeometry x="280" y="80" width="120" height="40" as="geometry" />
        </mxCell>
        <mxCell id="GmTHtz7dzIs1dA5yFzp--23" style="edgeStyle=none;shape=connector;rounded=0;orthogonalLoop=1;jettySize=auto;html=1;dashed=1;labelBackgroundColor=default;strokeColor=default;align=center;verticalAlign=middle;fontFamily=Helvetica;fontSize=11;fontColor=default;endArrow=block;endFill=0;" edge="1" parent="GmTHtz7dzIs1dA5yFzp--1">
          <mxGeometry relative="1" as="geometry">
            <mxPoint x="140" y="60" as="sourcePoint" />
            <mxPoint x="250" y="200" as="targetPoint" />
          </mxGeometry>
        </mxCell>
        <mxCell id="GmTHtz7dzIs1dA5yFzp--24" value="&amp;lt;&amp;lt;include&amp;gt;&amp;gt;" style="edgeLabel;html=1;align=center;verticalAlign=middle;resizable=0;points=[];fontSize=11;fontFamily=Helvetica;fontColor=default;" vertex="1" connectable="0" parent="GmTHtz7dzIs1dA5yFzp--23">
          <mxGeometry x="-0.1645" y="1" relative="1" as="geometry">
            <mxPoint as="offset" />
          </mxGeometry>
        </mxCell>
        <mxCell id="GmTHtz7dzIs1dA5yFzp--31" value="Authenticate" style="ellipse;whiteSpace=wrap;html=1;" vertex="1" parent="GmTHtz7dzIs1dA5yFzp--1">
          <mxGeometry x="244" y="295" width="120" height="40" as="geometry" />
        </mxCell>
        <mxCell id="GmTHtz7dzIs1dA5yFzp--74" value="&amp;lt;&amp;lt;extends&amp;gt;&amp;gt;" style="edgeStyle=none;shape=connector;rounded=0;orthogonalLoop=1;jettySize=auto;html=1;exitX=0;exitY=0.5;exitDx=0;exitDy=0;entryX=1;entryY=0.5;entryDx=0;entryDy=0;labelBackgroundColor=default;strokeColor=default;align=center;verticalAlign=middle;fontFamily=Helvetica;fontSize=11;fontColor=default;endArrow=block;endFill=0;dashed=1;" edge="1" parent="GmTHtz7dzIs1dA5yFzp--1" source="GmTHtz7dzIs1dA5yFzp--32" target="XZLCO3Vo44rSbqRTJxc--7">
          <mxGeometry relative="1" as="geometry" />
        </mxCell>
        <mxCell id="GmTHtz7dzIs1dA5yFzp--32" value="Invalid login /signup" style="ellipse;whiteSpace=wrap;html=1;" vertex="1" parent="GmTHtz7dzIs1dA5yFzp--1">
          <mxGeometry x="244" y="360" width="120" height="40" as="geometry" />
        </mxCell>
        <mxCell id="XZLCO3Vo44rSbqRTJxc--14" value="Open GUI" style="ellipse;whiteSpace=wrap;html=1;" parent="GmTHtz7dzIs1dA5yFzp--1" vertex="1">
          <mxGeometry x="30" y="410" width="90" height="30" as="geometry" />
        </mxCell>
        <mxCell id="GmTHtz7dzIs1dA5yFzp--72" style="edgeStyle=none;shape=connector;rounded=0;orthogonalLoop=1;jettySize=auto;html=1;exitX=1;exitY=0;exitDx=0;exitDy=0;entryX=0;entryY=0.5;entryDx=0;entryDy=0;labelBackgroundColor=default;strokeColor=default;align=center;verticalAlign=middle;fontFamily=Helvetica;fontSize=11;fontColor=default;endArrow=block;endFill=0;dashed=1;" edge="1" parent="GmTHtz7dzIs1dA5yFzp--1" source="XZLCO3Vo44rSbqRTJxc--7" target="GmTHtz7dzIs1dA5yFzp--31">
          <mxGeometry relative="1" as="geometry" />
        </mxCell>
        <mxCell id="GmTHtz7dzIs1dA5yFzp--75" value="&amp;lt;&amp;lt;include&amp;gt;&amp;gt;" style="edgeLabel;html=1;align=center;verticalAlign=middle;resizable=0;points=[];fontSize=11;fontFamily=Helvetica;fontColor=default;" vertex="1" connectable="0" parent="GmTHtz7dzIs1dA5yFzp--72">
          <mxGeometry x="-0.1641" y="2" relative="1" as="geometry">
            <mxPoint as="offset" />
          </mxGeometry>
        </mxCell>
        <mxCell id="XZLCO3Vo44rSbqRTJxc--7" value="Login/Sign up" style="ellipse;whiteSpace=wrap;html=1;" parent="GmTHtz7dzIs1dA5yFzp--1" vertex="1">
          <mxGeometry x="10" y="360" width="120" height="40" as="geometry" />
        </mxCell>
        <mxCell id="XZLCO3Vo44rSbqRTJxc--10" value="Find Products by Category" style="ellipse;whiteSpace=wrap;html=1;" parent="GmTHtz7dzIs1dA5yFzp--1" vertex="1">
          <mxGeometry x="19.5" y="610" width="176" height="50" as="geometry" />
        </mxCell>
        <mxCell id="XZLCO3Vo44rSbqRTJxc--9" value="Sort Products alphabetically&amp;nbsp;&lt;br&gt;by product name" style="ellipse;whiteSpace=wrap;html=1;" parent="GmTHtz7dzIs1dA5yFzp--1" vertex="1">
          <mxGeometry x="12.25" y="550" width="195" height="45" as="geometry" />
        </mxCell>
        <mxCell id="GmTHtz7dzIs1dA5yFzp--85" value="&amp;lt;&amp;lt;include&amp;gt;&amp;gt;" style="edgeStyle=none;shape=connector;rounded=0;orthogonalLoop=1;jettySize=auto;html=1;exitX=1;exitY=0.5;exitDx=0;exitDy=0;labelBackgroundColor=default;strokeColor=default;align=center;verticalAlign=middle;fontFamily=Helvetica;fontSize=11;fontColor=default;endArrow=block;endFill=0;dashed=1;" edge="1" parent="GmTHtz7dzIs1dA5yFzp--1" source="GmTHtz7dzIs1dA5yFzp--34" target="GmTHtz7dzIs1dA5yFzp--71">
          <mxGeometry relative="1" as="geometry" />
        </mxCell>
        <mxCell id="GmTHtz7dzIs1dA5yFzp--34" value="view shopping cart" style="ellipse;whiteSpace=wrap;html=1;" vertex="1" parent="GmTHtz7dzIs1dA5yFzp--1">
          <mxGeometry x="17.25" y="450" width="180.5" height="40" as="geometry" />
        </mxCell>
        <mxCell id="GmTHtz7dzIs1dA5yFzp--35" value="select products" style="ellipse;whiteSpace=wrap;html=1;" vertex="1" parent="GmTHtz7dzIs1dA5yFzp--1">
          <mxGeometry x="40" y="500" width="120.5" height="40" as="geometry" />
        </mxCell>
        <mxCell id="GmTHtz7dzIs1dA5yFzp--36" value="Add to Cart" style="ellipse;whiteSpace=wrap;html=1;" vertex="1" parent="GmTHtz7dzIs1dA5yFzp--1">
          <mxGeometry x="49.5" y="680" width="120.5" height="40" as="geometry" />
        </mxCell>
        <mxCell id="GmTHtz7dzIs1dA5yFzp--37" value="Remove from Cart" style="ellipse;whiteSpace=wrap;html=1;" vertex="1" parent="GmTHtz7dzIs1dA5yFzp--1">
          <mxGeometry x="49.5" y="740" width="120.5" height="40" as="geometry" />
        </mxCell>
        <mxCell id="GmTHtz7dzIs1dA5yFzp--38" value="Display product detials" style="ellipse;whiteSpace=wrap;html=1;" vertex="1" parent="GmTHtz7dzIs1dA5yFzp--1">
          <mxGeometry x="310" y="550" width="120.5" height="40" as="geometry" />
        </mxCell>
        <mxCell id="GmTHtz7dzIs1dA5yFzp--48" value="&amp;lt;&amp;lt;include&amp;gt;&amp;gt;" style="edgeStyle=none;shape=connector;rounded=0;orthogonalLoop=1;jettySize=auto;html=1;entryX=0;entryY=0.5;entryDx=0;entryDy=0;dashed=1;labelBackgroundColor=default;strokeColor=default;align=center;verticalAlign=middle;fontFamily=Helvetica;fontSize=11;fontColor=default;endArrow=block;endFill=0;" edge="1" parent="GmTHtz7dzIs1dA5yFzp--1" source="GmTHtz7dzIs1dA5yFzp--35" target="GmTHtz7dzIs1dA5yFzp--38">
          <mxGeometry relative="1" as="geometry" />
        </mxCell>
        <mxCell id="GmTHtz7dzIs1dA5yFzp--79" style="edgeStyle=none;shape=connector;rounded=0;orthogonalLoop=1;jettySize=auto;html=1;exitX=0.5;exitY=1;exitDx=0;exitDy=0;entryX=1;entryY=0.5;entryDx=0;entryDy=0;labelBackgroundColor=default;strokeColor=default;align=center;verticalAlign=middle;fontFamily=Helvetica;fontSize=11;fontColor=default;endArrow=block;endFill=0;dashed=1;" edge="1" parent="GmTHtz7dzIs1dA5yFzp--1" source="GmTHtz7dzIs1dA5yFzp--38" target="GmTHtz7dzIs1dA5yFzp--36">
          <mxGeometry relative="1" as="geometry" />
        </mxCell>
        <mxCell id="GmTHtz7dzIs1dA5yFzp--81" value="&amp;lt;&amp;lt;include&amp;gt;&amp;gt;" style="edgeLabel;html=1;align=center;verticalAlign=middle;resizable=0;points=[];fontSize=11;fontFamily=Helvetica;fontColor=default;" vertex="1" connectable="0" parent="GmTHtz7dzIs1dA5yFzp--79">
          <mxGeometry x="0.1119" y="-1" relative="1" as="geometry">
            <mxPoint x="-1" as="offset" />
          </mxGeometry>
        </mxCell>
        <mxCell id="GmTHtz7dzIs1dA5yFzp--80" style="edgeStyle=none;shape=connector;rounded=0;orthogonalLoop=1;jettySize=auto;html=1;exitX=0.687;exitY=0.967;exitDx=0;exitDy=0;entryX=1;entryY=0.5;entryDx=0;entryDy=0;labelBackgroundColor=default;strokeColor=default;align=center;verticalAlign=middle;fontFamily=Helvetica;fontSize=11;fontColor=default;endArrow=block;endFill=0;dashed=1;exitPerimeter=0;" edge="1" parent="GmTHtz7dzIs1dA5yFzp--1" source="GmTHtz7dzIs1dA5yFzp--38" target="GmTHtz7dzIs1dA5yFzp--37">
          <mxGeometry relative="1" as="geometry" />
        </mxCell>
        <mxCell id="GmTHtz7dzIs1dA5yFzp--83" value="&amp;lt;&amp;lt;include&amp;gt;&amp;gt;" style="edgeLabel;html=1;align=center;verticalAlign=middle;resizable=0;points=[];fontSize=11;fontFamily=Helvetica;fontColor=default;" vertex="1" connectable="0" parent="GmTHtz7dzIs1dA5yFzp--80">
          <mxGeometry x="0.2742" y="-2" relative="1" as="geometry">
            <mxPoint as="offset" />
          </mxGeometry>
        </mxCell>
        <mxCell id="GmTHtz7dzIs1dA5yFzp--71" value="Display product cart details." style="ellipse;whiteSpace=wrap;html=1;" vertex="1" parent="GmTHtz7dzIs1dA5yFzp--1">
          <mxGeometry x="330" y="455" width="126" height="45" as="geometry" />
        </mxCell>
        <mxCell id="GmTHtz7dzIs1dA5yFzp--9" style="rounded=0;orthogonalLoop=1;jettySize=auto;html=1;exitX=0.5;exitY=0.5;exitDx=0;exitDy=0;exitPerimeter=0;entryX=0;entryY=0.5;entryDx=0;entryDy=0;endArrow=none;endFill=0;" edge="1" parent="1" source="GmTHtz7dzIs1dA5yFzp--8" target="GmTHtz7dzIs1dA5yFzp--5">
          <mxGeometry relative="1" as="geometry" />
        </mxCell>
        <mxCell id="GmTHtz7dzIs1dA5yFzp--8" value="Manager" style="shape=umlActor;verticalLabelPosition=bottom;verticalAlign=top;html=1;outlineConnect=0;" vertex="1" parent="1">
          <mxGeometry x="80" y="140" width="30" height="60" as="geometry" />
        </mxCell>
        <mxCell id="GmTHtz7dzIs1dA5yFzp--61" style="edgeStyle=none;shape=connector;rounded=0;orthogonalLoop=1;jettySize=auto;html=1;exitX=0;exitY=0.5;exitDx=0;exitDy=0;entryX=0.5;entryY=0.5;entryDx=0;entryDy=0;entryPerimeter=0;labelBackgroundColor=default;strokeColor=default;align=center;verticalAlign=middle;fontFamily=Helvetica;fontSize=11;fontColor=default;endArrow=none;endFill=0;" edge="1" parent="1" source="XZLCO3Vo44rSbqRTJxc--3" target="GmTHtz7dzIs1dA5yFzp--8">
          <mxGeometry relative="1" as="geometry" />
        </mxCell>
        <mxCell id="GmTHtz7dzIs1dA5yFzp--65" style="edgeStyle=none;shape=connector;rounded=0;orthogonalLoop=1;jettySize=auto;html=1;exitX=0;exitY=0.5;exitDx=0;exitDy=0;entryX=0.5;entryY=0.5;entryDx=0;entryDy=0;entryPerimeter=0;labelBackgroundColor=default;strokeColor=default;align=center;verticalAlign=middle;fontFamily=Helvetica;fontSize=11;fontColor=default;endArrow=none;endFill=0;" edge="1" parent="1" source="GmTHtz7dzIs1dA5yFzp--3" target="GmTHtz7dzIs1dA5yFzp--8">
          <mxGeometry relative="1" as="geometry" />
        </mxCell>
        <mxCell id="GmTHtz7dzIs1dA5yFzp--66" style="edgeStyle=none;shape=connector;rounded=0;orthogonalLoop=1;jettySize=auto;html=1;exitX=0;exitY=0.5;exitDx=0;exitDy=0;entryX=0.5;entryY=0.5;entryDx=0;entryDy=0;entryPerimeter=0;labelBackgroundColor=default;strokeColor=default;align=center;verticalAlign=middle;fontFamily=Helvetica;fontSize=11;fontColor=default;endArrow=none;endFill=0;" edge="1" parent="1" source="XZLCO3Vo44rSbqRTJxc--14" target="XZLCO3Vo44rSbqRTJxc--2">
          <mxGeometry relative="1" as="geometry" />
        </mxCell>
        <mxCell id="GmTHtz7dzIs1dA5yFzp--69" style="edgeStyle=none;shape=connector;rounded=0;orthogonalLoop=1;jettySize=auto;html=1;exitX=0;exitY=0.5;exitDx=0;exitDy=0;entryX=0.5;entryY=0.5;entryDx=0;entryDy=0;entryPerimeter=0;labelBackgroundColor=default;strokeColor=default;align=center;verticalAlign=middle;fontFamily=Helvetica;fontSize=11;fontColor=default;endArrow=none;endFill=0;" edge="1" parent="1" source="XZLCO3Vo44rSbqRTJxc--9" target="XZLCO3Vo44rSbqRTJxc--2">
          <mxGeometry relative="1" as="geometry" />
        </mxCell>
        <mxCell id="GmTHtz7dzIs1dA5yFzp--70" style="edgeStyle=none;shape=connector;rounded=0;orthogonalLoop=1;jettySize=auto;html=1;exitX=0;exitY=0.5;exitDx=0;exitDy=0;labelBackgroundColor=default;strokeColor=default;align=center;verticalAlign=middle;fontFamily=Helvetica;fontSize=11;fontColor=default;endArrow=none;endFill=0;entryX=0.5;entryY=0.5;entryDx=0;entryDy=0;entryPerimeter=0;" edge="1" parent="1" source="XZLCO3Vo44rSbqRTJxc--10" target="XZLCO3Vo44rSbqRTJxc--2">
          <mxGeometry relative="1" as="geometry" />
        </mxCell>
        <mxCell id="GmTHtz7dzIs1dA5yFzp--76" style="edgeStyle=none;shape=connector;rounded=0;orthogonalLoop=1;jettySize=auto;html=1;exitX=0;exitY=0.5;exitDx=0;exitDy=0;labelBackgroundColor=default;strokeColor=default;align=center;verticalAlign=middle;fontFamily=Helvetica;fontSize=11;fontColor=default;endArrow=none;endFill=0;entryX=0.5;entryY=0.5;entryDx=0;entryDy=0;entryPerimeter=0;" edge="1" parent="1" source="GmTHtz7dzIs1dA5yFzp--36" target="XZLCO3Vo44rSbqRTJxc--2">
          <mxGeometry relative="1" as="geometry" />
        </mxCell>
        <mxCell id="GmTHtz7dzIs1dA5yFzp--77" style="edgeStyle=none;shape=connector;rounded=0;orthogonalLoop=1;jettySize=auto;html=1;exitX=0;exitY=0.5;exitDx=0;exitDy=0;entryX=0.5;entryY=0.5;entryDx=0;entryDy=0;entryPerimeter=0;labelBackgroundColor=default;strokeColor=default;align=center;verticalAlign=middle;fontFamily=Helvetica;fontSize=11;fontColor=default;endArrow=none;endFill=0;" edge="1" parent="1" source="GmTHtz7dzIs1dA5yFzp--37" target="XZLCO3Vo44rSbqRTJxc--2">
          <mxGeometry relative="1" as="geometry" />
        </mxCell>
        <mxCell id="GmTHtz7dzIs1dA5yFzp--67" style="edgeStyle=none;shape=connector;rounded=0;orthogonalLoop=1;jettySize=auto;html=1;exitX=0;exitY=0.5;exitDx=0;exitDy=0;labelBackgroundColor=default;strokeColor=default;align=center;verticalAlign=middle;fontFamily=Helvetica;fontSize=11;fontColor=default;endArrow=none;endFill=0;entryX=0.5;entryY=0.5;entryDx=0;entryDy=0;entryPerimeter=0;" edge="1" parent="1" source="GmTHtz7dzIs1dA5yFzp--35" target="XZLCO3Vo44rSbqRTJxc--2">
          <mxGeometry relative="1" as="geometry">
            <mxPoint x="79.99999999999989" y="510" as="targetPoint" />
          </mxGeometry>
        </mxCell>
        <mxCell id="GmTHtz7dzIs1dA5yFzp--68" style="edgeStyle=none;shape=connector;rounded=0;orthogonalLoop=1;jettySize=auto;html=1;exitX=0;exitY=0.5;exitDx=0;exitDy=0;labelBackgroundColor=default;strokeColor=default;align=center;verticalAlign=middle;fontFamily=Helvetica;fontSize=11;fontColor=default;endArrow=none;endFill=0;entryX=0.5;entryY=0.5;entryDx=0;entryDy=0;entryPerimeter=0;" edge="1" parent="1" source="GmTHtz7dzIs1dA5yFzp--34" target="XZLCO3Vo44rSbqRTJxc--2">
          <mxGeometry relative="1" as="geometry">
            <mxPoint x="79.99999999999989" y="510" as="targetPoint" />
          </mxGeometry>
        </mxCell>
        <mxCell id="GmTHtz7dzIs1dA5yFzp--64" style="edgeStyle=none;shape=connector;rounded=0;orthogonalLoop=1;jettySize=auto;html=1;exitX=0;exitY=0.5;exitDx=0;exitDy=0;labelBackgroundColor=default;strokeColor=default;align=center;verticalAlign=middle;fontFamily=Helvetica;fontSize=11;fontColor=default;endArrow=none;endFill=0;entryX=0.5;entryY=0.5;entryDx=0;entryDy=0;entryPerimeter=0;" edge="1" parent="1" source="XZLCO3Vo44rSbqRTJxc--6" target="GmTHtz7dzIs1dA5yFzp--8">
          <mxGeometry relative="1" as="geometry">
            <mxPoint x="89.99999999999989" y="190" as="targetPoint" />
          </mxGeometry>
        </mxCell>
        <mxCell id="GmTHtz7dzIs1dA5yFzp--62" style="edgeStyle=none;shape=connector;rounded=0;orthogonalLoop=1;jettySize=auto;html=1;exitX=0;exitY=0.5;exitDx=0;exitDy=0;labelBackgroundColor=default;strokeColor=default;align=center;verticalAlign=middle;fontFamily=Helvetica;fontSize=11;fontColor=default;endArrow=none;endFill=0;entryX=0.5;entryY=0.5;entryDx=0;entryDy=0;entryPerimeter=0;" edge="1" parent="1" source="XZLCO3Vo44rSbqRTJxc--4" target="GmTHtz7dzIs1dA5yFzp--8">
          <mxGeometry relative="1" as="geometry">
            <mxPoint x="89.99999999999989" y="190" as="targetPoint" />
          </mxGeometry>
        </mxCell>
        <mxCell id="GmTHtz7dzIs1dA5yFzp--63" style="edgeStyle=none;shape=connector;rounded=0;orthogonalLoop=1;jettySize=auto;html=1;exitX=0;exitY=0.5;exitDx=0;exitDy=0;labelBackgroundColor=default;strokeColor=default;align=center;verticalAlign=middle;fontFamily=Helvetica;fontSize=11;fontColor=default;endArrow=none;endFill=0;entryX=0.5;entryY=0.5;entryDx=0;entryDy=0;entryPerimeter=0;" edge="1" parent="1" source="XZLCO3Vo44rSbqRTJxc--5" target="GmTHtz7dzIs1dA5yFzp--8">
          <mxGeometry relative="1" as="geometry">
            <mxPoint x="89.99999999999989" y="190" as="targetPoint" />
          </mxGeometry>
        </mxCell>
      </root>
    </mxGraphModel>
  </diagram>
</mxfile>
